<?xml version="1.0" encoding="UTF-8"?>
<svg id="Layer_1" data-name="Layer 1" xmlns="http://www.w3.org/2000/svg" viewBox="0 0 150 150">
  <defs>
    <style>
      .cls-1 {
        fill: #fbab2c;
      }

      .cls-2, .cls-3, .cls-4, .cls-5, .cls-6 {
        stroke-linejoin: round;
      }

      .cls-2, .cls-3, .cls-4, .cls-6 {
        stroke-width: 3px;
      }

      .cls-2, .cls-4 {
        fill: #fff;
      }

      .cls-2, .cls-5, .cls-6 {
        stroke: #74bf4b;
      }

      .cls-3, .cls-4 {
        stroke: #00bceb;
      }

      .cls-3, .cls-5, .cls-6 {
        fill: none;
      }

      .cls-4 {
        stroke-linecap: square;
      }

      .cls-5 {
        stroke-width: 4.3px;
      }
    </style>
  </defs>
  <g id="Layer_2" data-name="Layer 2">
    <circle class="cls-4" cx="75.04" cy="75.03" r="73.59"/>
  </g>
  <g id="Layer_1-2" data-name="Layer 1">
    <g>
      <line class="cls-3" x1="48.38" y1="62.03" x2="96.57" y2="62.03"/>
      <line class="cls-3" x1="48.38" y1="72.35" x2="96.57" y2="72.35"/>
      <line class="cls-3" x1="48.38" y1="82.68" x2="96.57" y2="82.68"/>
      <line class="cls-3" x1="48.38" y1="93.01" x2="82.8" y2="93.01"/>
      <polyline class="cls-3" points="82.8 24.17 82.8 48.26 106.9 48.26"/>
      <polygon class="cls-3" points="38.05 127.43 38.05 24.17 82.8 24.17 106.9 48.26 106.9 127.43 38.05 127.43"/>
    </g>
    <path class="cls-2" d="M108.31,74.04c10.09,10.09,10.09,26.45,0,36.53s-26.44,10.09-36.53,0c-10.09-10.09-10.09-26.44,0-36.53,10.09-10.09,26.45-10.09,36.53,0Z"/>
    <line class="cls-5" x1="108.34" y1="110.6" x2="124.48" y2="127.72"/>
    <path class="cls-1" d="M97.36,97.88h-18.13c-5,0-9.07,4.06-9.07,9.07v.35c1.54,2.29,3.31,4.4,5.27,6.31,9.38,6.44,22.06,6.01,30.98-1.33v-5.33c0-5-4.06-9.07-9.07-9.07h0Z"/>
    <path class="cls-6" d="M108.31,74.04c10.09,10.09,10.09,26.45,0,36.53s-26.44,10.09-36.53,0c-10.09-10.09-10.09-26.44,0-36.53,10.09-10.09,26.45-10.09,36.53,0Z"/>
    <circle class="cls-1" cx="88.92" cy="86.18" r="9.07"/>
  </g>
</svg>