<?xml version="1.0" encoding="UTF-8"?>
<svg id="Layer_1" data-name="Layer 1" xmlns="http://www.w3.org/2000/svg" viewBox="0 0 150 150">
  <defs>
    <style>
      .cls-1, .cls-2 {
        stroke-miterlimit: 10;
      }

      .cls-1, .cls-2, .cls-3, .cls-4 {
        fill: none;
        stroke-width: 3px;
      }

      .cls-1, .cls-4 {
        stroke: #fbab2c;
      }

      .cls-2, .cls-3 {
        stroke: #00bceb;
      }

      .cls-3 {
        stroke-linecap: square;
      }

      .cls-3, .cls-4 {
        stroke-linejoin: round;
      }
    </style>
  </defs>
  <circle class="cls-3" cx="75" cy="75" r="73.59"/>
  <path class="cls-4" d="M67.48,76.3c0-7.52-8.44-14.13-8.44-14.13-8.82-8.81-8.82-23.1,0-31.92,4.41-4.41,10.18-6.61,15.96-6.61s11.55,2.2,15.96,6.61c8.82,8.81,8.82,23.1,0,31.92,0,0-8.44,6.61-8.44,14.13h-15.05Z"/>
  <line class="cls-1" x1="67.48" y1="83.94" x2="82.52" y2="83.94"/>
  <line class="cls-1" x1="75" y1="76.3" x2="75" y2="46.21"/>
  <polyline class="cls-1" points="82.52 46.21 75 46.21 67.48 46.21"/>
  <g>
    <path class="cls-2" d="M93.77,100.05s21.47-17.77,23.82-18.94,4.36-2.68,7.55-2.68c2.68,0,5.37,3.35,4.19,5.7-1.17,2.35-6.71,9.19-13.09,15.92-6.38,6.73-10.91,15.8-19.46,21-8.56,5.2-16.61,6.54-23.83,7.21s-21.81-4.21-25.84-5.04-13.42-4.36-21.81,6.05"/>
    <path class="cls-2" d="M58.69,109.45h29.03s6.88-.48,6.71-6.52-6.38-6.54-6.38-6.54l-23.14-1.49s-13.81-5.3-17.13-6.06c-3.32-.76-12.85-1.61-19.5,1.48-3.74,1.74-21.01,13.54-21.01,13.54"/>
  </g>
</svg>