<?xml version="1.0" encoding="UTF-8"?>
<svg id="Layer_1" data-name="Layer 1" xmlns="http://www.w3.org/2000/svg" xmlns:xlink="http://www.w3.org/1999/xlink" viewBox="0 0 150 150">
  <defs>
    <style>
      .cls-1 {
        fill: #fbab2c;
      }

      .cls-2 {
        fill: #00bceb;
      }

      .cls-3 {
        fill: url(#radial-gradient);
      }

      .cls-4 {
        fill: #fff;
        stroke-linecap: square;
        stroke-linejoin: round;
      }

      .cls-4, .cls-5, .cls-6 {
        stroke: #00bceb;
        stroke-width: 2.25px;
      }

      .cls-5 {
        stroke-miterlimit: 5;
      }

      .cls-5, .cls-6 {
        fill: none;
      }

      .cls-6 {
        stroke-miterlimit: 10;
      }
    </style>
    <radialGradient id="radial-gradient" cx="99.64" cy="86.81" fx="99.64" fy="86.81" r="27.73" gradientUnits="userSpaceOnUse">
      <stop offset="0" stop-color="#fbab2c"/>
      <stop offset="1" stop-color="#fff"/>
    </radialGradient>
  </defs>
  <circle class="cls-4" cx="75" cy="75" r="73.59"/>
  <path class="cls-3" d="M137.8,87.19c0,19.18-15.55,34.74-34.74,34.74-4.48,0-6.28-8.67-10.22-10.22,3.68-10.22,15.94-50.26,15.94-50.26,0,0,10.16-5.38,13.31-3.32,9.46,6.21,15.7,16.9,15.7,29.06Z"/>
  <path class="cls-1" d="M140.46,72.07c-.2-.57-.83-.87-1.4-.67l-27.64,9.06c-.57.2-.87.83-.67,1.4.16.45.58.73,1.03.73.12,0,.24-.02.36-.06l27.64-9.06c.57-.2.87-.83.67-1.4Z"/>
  <path class="cls-1" d="M106.9,98.19c-.34-.5-1.03-.62-1.52-.28-.5.34-.62,1.03-.28,1.52l14.65,23.71c.21.31.55.47.9.47.21,0,.43-.06.62-.19.5-.34.62-1.03.28-1.52l-14.65-23.71Z"/>
  <path class="cls-1" d="M137.77,97.93l-28.68-8.9c-.57-.19-1.19.12-1.38.7-.19.57.12,1.19.7,1.38l28.68,8.9c.11.04.23.06.34.06.46,0,.89-.29,1.04-.75.19-.57-.12-1.19-.7-1.38Z"/>
  <path class="cls-6" d="M26.57,49.23l-7.04,21.29c-.14.38-.44.51-.61.55-.18.04-.51.07-.82-.22l-3.2-3.07c-.24-.23-.33-.59-.22-.9l5.83-17.63c.11-.32.39-.55.72-.59l4.4-.56c.42-.05.67.17.78.31.11.14.28.43.16.82Z"/>
  <polygon class="cls-2" points="75.41 9.42 74.63 11.15 40.71 11.15 39.92 9.42 75.41 9.42"/>
  <polygon class="cls-6" points="73.02 14.71 66.27 29.62 49.07 29.62 42.32 14.71 73.02 14.71"/>
  <path class="cls-2" d="M57.55,80.86c-.24,0-.47,0-.7-.03-4.7-.36-8.38-4.34-8.38-9.06l.11-39.72h18.18l-.11,39.72c0,4.72-3.69,8.7-8.39,9.06-.22.02-.46.03-.7.03ZM50.82,34.3l-.11,37.47c0,3.55,2.77,6.54,6.31,6.81.36.03.7.03,1.04,0,3.55-.27,6.32-3.27,6.32-6.82l.11-37.47h-13.68Z"/>
  <circle class="cls-5" cx="57.55" cy="71.76" r="3.65"/>
  <path class="cls-5" d="M109.05,61.63l-15.9,48.09c-.12.37-.41.51-.57.56-.16.05-.47.1-.78-.13l-6.83-5.05c-.3-.23-.43-.62-.31-.98l14.23-43.05c.12-.36.45-.6.83-.6h0l8.5.02c.39,0,.61.23.71.36.1.14.24.42.12.79Z"/>
  <path class="cls-6" d="M69.13,52.76l25.29,7.64c.31.09.46.31.52.43.06.12.15.37.05.68l-13.2,39.93c-.1.31-.32.45-.45.51-.12.06-.38.14-.68.04l-59.8-21.49c-.45-.16-.69-.64-.54-1.1l2.56-7.75s0-.02.01-.03l7.03-21.25s0-.02,0-.03l2.56-7.76c.12-.37.46-.6.83-.6.08,0,.17.01.26.04l12.44,3.76"/>
</svg>